<svg width="50" height="50" viewBox="0 0 50 50" fill="none" xmlns="http://www.w3.org/2000/svg">
<path d="M15.0612 12.0573C15.1673 12.9409 15.4099 13.8027 15.5656 14.678C16.1375 17.8927 16.4205 21.1872 16.6841 24.4372C17.2103 30.926 17.1337 37.4301 17.1337 43.9337" stroke="white" stroke-width="3" stroke-linecap="round"/>
<path d="M11 24C11.4471 23.8417 11.8711 23.4507 12.228 23.1515C14.4718 21.271 16.5975 19.2474 18.8873 17.4242C22.7698 14.3328 26.8428 11.4959 31.0676 8.96061C34.6335 6.82071 38.3342 4.93585 42 3" stroke="white" stroke-width="3" stroke-linecap="round"/>
<path d="M14 37C15.7341 33.3392 18.2317 30.424 21.1593 27.8365C26.1519 23.424 31.4461 19.3575 37.0189 15.8654C40.5777 13.6353 44.273 11.8415 48 10" stroke="white" stroke-width="3" stroke-linecap="round"/>
</svg>
